{
  "asset": {
    "generator": "Khronos glTF Blender I/O v3.5.30",
    "version": "2.0"
  },
  "extensionsUsed": ["KHR_materials_specular", "KHR_materials_ior"],
  "scene": 0,
  "scenes": [
    {
      "name": "Scene",
      "nodes": [43]
    }
  ],
  "nodes": [
    {
      "name": "Bone.009",
      "rotation": [
        -0.08778920024633408, 0.054577767848968506, -0.04745792970061302,
        0.9935100078582764
      ],
      "scale": [1.0000001192092896, 0.9999999403953552, 1.0000001192092896],
      "translation": [
        1.932494342327118e-8, 0.1273379623889923, 3.073364496231079e-8
      ]
    },
    {
      "children": [0],
      "name": "Bone.008",
      "rotation": [
        0.10541707277297974, 0.1825651228427887, 0.26165807247161865,
        0.941855788230896
      ],
      "scale": [1.0000001192092896, 1.0000001192092896, 1.0000001192092896],
      "translation": [
        -2.9802322387695312e-8, 0.5267869830131531, 1.4901161193847656e-8
      ]
    },
    {
      "name": "Bone.011",
      "rotation": [
        -0.04526355117559433, -0.1335092931985855, -0.034612417221069336,
        0.9894081354141235
      ],
      "scale": [0.9999998807907104, 0.9999999403953552, 1],
      "translation": [
        5.21540641784668e-8, 0.1479823738336563, -5.587935447692871e-9
      ]
    },
    {
      "children": [2],
      "name": "Bone.010",
      "rotation": [
        0.12118365615606308, -0.08202327787876129, -0.1848592758178711,
        0.9718095660209656
      ],
      "scale": [1, 1, 1.0000001192092896],
      "translation": [
        -2.9802322387695312e-8, 0.5267869830131531, 1.4901161193847656e-8
      ]
    },
    {
      "name": "Bone.013",
      "rotation": [
        -0.010285230353474617, 0.024837154895067215, -0.00787233468145132,
        0.9996076226234436
      ],
      "scale": [1, 1.0000001192092896, 1],
      "translation": [
        4.0978193283081055e-8, 0.12539413571357727, 1.5832483768463135e-8
      ]
    },
    {
      "children": [4],
      "name": "Bone.012",
      "rotation": [
        -0.038221124559640884, 0.04601810500025749, 0.6439608931541443,
        0.7627161145210266
      ],
      "scale": [1, 1, 1.0000001192092896],
      "translation": [
        -2.9802322387695312e-8, 0.5267869830131531, 1.4901161193847656e-8
      ]
    },
    {
      "children": [1, 3, 5],
      "name": "Bone.007",
      "rotation": [
        0.39253488183021545, -0.15557020902633667, 0.8882918953895569,
        0.18069815635681152
      ],
      "scale": [0.9999991655349731, 0.9999997615814209, 0.9999997615814209],
      "translation": [0, 0.6599632501602173, -2.9802322387695312e-8]
    },
    {
      "children": [6],
      "name": "Bone.005",
      "rotation": [
        -0.06549855321645737, 0.005553706083446741, -0.9876311421394348,
        0.14235112071037292
      ],
      "scale": [1.000001072883606, 1, 1.0000001192092896],
      "translation": [
        1.4901161193847656e-8, 0.5495489239692688, 9.685754776000977e-8
      ]
    },
    {
      "children": [7],
      "name": "Bone.004",
      "rotation": [
        -0.3268217146396637, 0.04106641560792923, 0.0034560551866889,
        0.9441870450973511
      ],
      "translation": [
        1.3969838619232178e-8, 0.3373648524284363, -1.4901161193847656e-8
      ]
    },
    {
      "children": [8],
      "name": "Bone.003",
      "rotation": [
        -0.05232745409011841, -0.18176230788230896, 0.901444673538208,
        0.38938650488853455
      ],
      "scale": [1.000000238418579, 1.0000001192092896, 1.000000238418579],
      "translation": [
        5.0240487325936556e-9, 0.315327525138855, -6.449408829212189e-8
      ]
    },
    {
      "name": "Bone.020",
      "rotation": [
        -0.07519826292991638, 0.057149969041347504, -0.035421110689640045,
        0.9948992133140564
      ],
      "scale": [0.9999998807907104, 1.0000001192092896, 0.9999998807907104],
      "translation": [
        3.9814040064811707e-8, 0.1273380070924759, -1.0244548320770264e-8
      ]
    },
    {
      "children": [10],
      "name": "Bone.019",
      "rotation": [
        0.25235602259635925, 0.09680703282356262, -0.06250720471143723,
        0.9607484936714172
      ],
      "scale": [1.0000001192092896, 1, 1],
      "translation": [
        -3.259629011154175e-9, 0.560807466506958, -3.725290298461914e-9
      ]
    },
    {
      "name": "Bone.022",
      "rotation": [
        -0.041326507925987244, -0.03552823141217232, 0.039229363203048706,
        0.9977429509162903
      ],
      "scale": [1, 1, 0.9999999403953552],
      "translation": [
        -1.862645149230957e-8, 0.14798232913017273, -1.862645149230957e-8
      ]
    },
    {
      "children": [12],
      "name": "Bone.021",
      "rotation": [
        0.032167039811611176, -0.19443576037883759, 0.22953587770462036,
        0.9531386494636536
      ],
      "translation": [
        -3.259629011154175e-9, 0.560807466506958, -3.725290298461914e-9
      ]
    },
    {
      "name": "Bone.024",
      "rotation": [
        -0.01059413980692625, -0.009187360294163227, -0.007451351266354322,
        0.9998738765716553
      ],
      "scale": [0.9999998807907104, 1, 0.9999998807907104],
      "translation": [
        -2.2351741790771484e-8, 0.12539425492286682, 3.725290298461914e-9
      ]
    },
    {
      "children": [14],
      "name": "Bone.023",
      "rotation": [
        0.48302820324897766, 0.18093690276145935, -0.40296435356140137,
        0.7560194730758667
      ],
      "scale": [1, 0.9999999403953552, 0.9999999403953552],
      "translation": [
        -3.259629011154175e-9, 0.560807466506958, -3.725290298461914e-9
      ]
    },
    {
      "children": [11, 13, 15],
      "name": "Bone.018",
      "rotation": [
        0.2369932383298874, -0.2002429962158203, 0.9456853866577148,
        0.0970366820693016
      ],
      "scale": [0.9999995827674866, 0.9999998211860657, 0.9999994039535522],
      "translation": [
        -7.450580596923828e-9, 0.6991658210754395, 1.4901161193847656e-8
      ]
    },
    {
      "children": [16],
      "name": "Bone.016",
      "rotation": [
        0.03069881722331047, 0.14064104855060577, -0.9884929060935974,
        0.04646974429488182
      ],
      "scale": [1, 1.0000001192092896, 1.0000001192092896],
      "translation": [
        3.5390257835388184e-8, 0.5495491027832031, 7.450580596923828e-9
      ]
    },
    {
      "children": [17],
      "name": "Bone.015",
      "rotation": [
        -0.013356484472751617, 0.30285435914993286, -0.32714352011680603,
        0.895029604434967
      ],
      "scale": [1.0000001192092896, 1.0000001192092896, 1.0000001192092896],
      "translation": [
        -2.9802322387695312e-8, 0.3376851975917816, -3.725290298461914e-9
      ]
    },
    {
      "children": [18],
      "name": "Bone.014",
      "rotation": [
        0.3990708887577057, 0.42533078789711, -0.7285612225532532,
        0.35921403765678406
      ],
      "scale": [1.0000001192092896, 1.0000001192092896, 1],
      "translation": [
        5.0240487325936556e-9, 0.315327525138855, -6.449408829212189e-8
      ]
    },
    {
      "children": [9, 19],
      "name": "Bone.002",
      "rotation": [
        -0.37921103835105896, -0.008451221510767937, -0.11981017887592316,
        0.9174818992614746
      ],
      "scale": [1, 0.9999998807907104, 0.9999998807907104],
      "translation": [
        5.587935447692871e-9, 0.604003369808197, -1.4994293451309204e-7
      ]
    },
    {
      "children": [20],
      "name": "Bone.001",
      "rotation": [
        -0.06916575878858566, -0.9749218821525574, -0.08544740080833435,
        0.19349990785121918
      ],
      "scale": [1, 0.9999998211860657, 1],
      "translation": [
        -3.725290298461914e-9, 0.2993505299091339, -6.030313670635223e-8
      ]
    },
    {
      "name": "Bone.029",
      "rotation": [
        0.1512189656496048, -0.23391969501972198, -0.04367882013320923,
        0.9594303369522095
      ],
      "translation": [
        -7.450580596923828e-9, 0.13544952869415283, 6.426125764846802e-8
      ]
    },
    {
      "children": [22],
      "name": "Bone.028",
      "rotation": [
        0.1282614767551422, -0.3561689555644989, 0.4430142045021057,
        0.8126690983772278
      ],
      "scale": [0.9999999403953552, 1, 1],
      "translation": [
        2.60770320892334e-8, 0.2878990173339844, 1.4901161193847656e-8
      ]
    },
    {
      "name": "Bone.031",
      "rotation": [
        -0.12973402440547943, 0.06387785822153091, 0.0791996493935585,
        0.9863144159317017
      ],
      "scale": [0.9999998807907104, 1, 1],
      "translation": [-2.60770320892334e-8, 0.1859298050403595, 0]
    },
    {
      "children": [24],
      "name": "Bone.030",
      "rotation": [
        -0.2465045154094696, 0.10512779653072357, 0.1468789279460907,
        0.9521608352661133
      ],
      "scale": [1.0000001192092896, 1, 1],
      "translation": [
        2.60770320892334e-8, 0.2878990173339844, 1.4901161193847656e-8
      ]
    },
    {
      "name": "Bone.034",
      "rotation": [
        -0.0801636353135109, -0.08753526955842972, -0.07018524408340454,
        0.9904471039772034
      ],
      "scale": [0.9999999403953552, 1, 0.9999999403953552],
      "translation": [
        2.421438694000244e-8, 0.19182944297790527, 2.8870999813079834e-8
      ]
    },
    {
      "children": [26],
      "name": "Bone.033",
      "rotation": [
        -0.28263816237449646, 0.07088359445333481, -0.12405188381671906,
        0.9485264420509338
      ],
      "translation": [
        2.60770320892334e-8, 0.2878990173339844, 1.4901161193847656e-8
      ]
    },
    {
      "children": [23, 25, 27],
      "name": "Bone.027",
      "rotation": [
        -0.20757371187210083, -0.7313036918640137, -0.48790374398231506,
        0.4290197789669037
      ],
      "scale": [0.9999998807907104, 0.9999995827674866, 0.9999998807907104],
      "translation": [
        -2.7008354663848877e-8, 0.2771783471107483, 5.587935447692871e-9
      ]
    },
    {
      "children": [28],
      "name": "Bone.026",
      "rotation": [
        0.27418771386146545, 0.09344882518053055, 0.11650997400283813,
        0.9500073194503784
      ],
      "scale": [1.0000001192092896, 1, 1],
      "translation": [
        -2.60770320892334e-8, 0.33386465907096863, -7.450580596923828e-8
      ]
    },
    {
      "children": [29],
      "name": "Bone.025",
      "rotation": [
        -0.03292611613869667, -0.21008650958538055, -0.7446703910827637,
        0.6326495409011841
      ],
      "scale": [1, 1.0000001192092896, 1],
      "translation": [
        -3.725290298461914e-9, 0.2993505299091339, -6.030313670635223e-8
      ]
    },
    {
      "name": "Bone.038",
      "rotation": [
        -0.15579713881015778, -0.18993528187274933, -0.022411325946450233,
        0.9690973162651062
      ],
      "scale": [0.9999998211860657, 1, 0.9999997615814209],
      "translation": [
        -7.450580596923828e-9, 0.13544954359531403, 1.862645149230957e-8
      ]
    },
    {
      "children": [31],
      "name": "Bone.037",
      "rotation": [
        -0.4576653242111206, -0.39195340871810913, 0.05705459415912628,
        0.7960274815559387
      ],
      "scale": [1, 0.9999999403953552, 1],
      "translation": [
        2.9802322387695312e-8, 0.2878989279270172, -1.1175870895385742e-8
      ]
    },
    {
      "name": "Bone.040",
      "rotation": [
        -0.14206549525260925, 0.10222084820270538, -0.054045483469963074,
        0.9830805659294128
      ],
      "scale": [0.9999999403953552, 0.9999998211860657, 1],
      "translation": [
        3.166496753692627e-8, 0.18592959642410278, -2.2351741790771484e-8
      ]
    },
    {
      "children": [33],
      "name": "Bone.039",
      "rotation": [
        -0.28166860342025757, 0.25240233540534973, 0.05477964133024216,
        0.9240968823432922
      ],
      "scale": [0.9999999403953552, 1, 0.9999999403953552],
      "translation": [
        2.9802322387695312e-8, 0.2878989279270172, -1.1175870895385742e-8
      ]
    },
    {
      "name": "Bone.042",
      "rotation": [
        -0.05846695601940155, 0.06614864617586136, 0.0890718400478363,
        0.9921049475669861
      ],
      "scale": [1.0000001192092896, 0.9999999403953552, 1],
      "translation": [
        -3.725290298461914e-8, 0.19182942807674408, -4.7497451305389404e-8
      ]
    },
    {
      "children": [35],
      "name": "Bone.041",
      "rotation": [
        -0.14241662621498108, 0.32955873012542725, 0.2738443911075592,
        0.8922543525695801
      ],
      "scale": [1, 1, 0.9999999403953552],
      "translation": [
        2.9802322387695312e-8, 0.2878989279270172, -1.1175870895385742e-8
      ]
    },
    {
      "children": [32, 34, 36],
      "name": "Bone.036",
      "rotation": [
        -0.5249457955360413, -0.7529585957527161, 0.07462408393621445,
        0.3897646367549896
      ],
      "scale": [1.0000001192092896, 1.0000004768371582, 1],
      "translation": [
        3.119930624961853e-8, 0.2771783471107483, 1.4901161193847656e-8
      ]
    },
    {
      "children": [37],
      "name": "Bone.035",
      "rotation": [
        -0.19183647632598877, 0.36331942677497864, 0.22793038189411163,
        0.8827488422393799
      ],
      "scale": [0.9999998211860657, 1, 0.9999998807907104],
      "translation": [
        -7.450580596923828e-9, 0.333864688873291, 2.9802322387695312e-8
      ]
    },
    {
      "children": [38],
      "name": "Bone.032",
      "rotation": [
        0.5013006329536438, -0.663725733757019, -0.5378201603889465,
        0.13753297924995422
      ],
      "scale": [1.0000001192092896, 1, 1.000000238418579],
      "translation": [
        -3.725290298461914e-9, 0.2993505299091339, -6.030313670635223e-8
      ]
    },
    {
      "children": [21, 30, 39],
      "name": "Bone.044",
      "rotation": [
        0.30343738198280334, -0.2920258641242981, -0.008797693066298962,
        0.9069560766220093
      ],
      "scale": [0.9999999403953552, 1.0000001192092896, 1],
      "translation": [
        1.3387762010097504e-8, 0.21652771532535553, 1.6705598682165146e-8
      ]
    },
    {
      "children": [40],
      "name": "Bone.043",
      "rotation": [
        -0.06073491647839546, -0.8494463562965393, 0.5135504603385925,
        0.10496698319911957
      ],
      "scale": [1, 1, 1.0000001192092896],
      "translation": [
        -0.0018754289485514164, 0.7324705719947815, 0.673267126083374
      ]
    },
    {
      "mesh": 0,
      "name": "Frog3D",
      "skin": 0
    },
    {
      "children": [42, 41],
      "name": "Armature.001",
      "scale": [1.178378701210022, 1.178378701210022, 1.178378701210022],
      "translation": [
        0.0038342177867889404, 0.005339823663234711, 0.0008519627153873444
      ]
    }
  ],
  "materials": [
    {
      "doubleSided": true,
      "extensions": {
        "KHR_materials_specular": {
          "specularColorFactor": [0, 0, 0]
        },
        "KHR_materials_ior": {
          "ior": 1.4500000476837158
        }
      },
      "name": "Shaders",
      "pbrMetallicRoughness": {
        "metallicFactor": 0
      }
    }
  ],
  "meshes": [
    {
      "name": "Frog3DModel",
      "primitives": [
        {
          "attributes": {
            "COLOR_0": 0,
            "POSITION": 1,
            "TEXCOORD_0": 2,
            "NORMAL": 3,
            "JOINTS_0": 4,
            "WEIGHTS_0": 5
          },
          "indices": 6
        },
        {
          "attributes": {
            "COLOR_0": 7,
            "POSITION": 8,
            "TEXCOORD_0": 9,
            "NORMAL": 10,
            "JOINTS_0": 11,
            "WEIGHTS_0": 12
          },
          "indices": 13,
          "material": 0
        }
      ]
    }
  ],
  "skins": [
    {
      "inverseBindMatrices": 14,
      "joints": [
        41, 40, 21, 20, 9, 8, 7, 6, 1, 0, 3, 2, 5, 4, 19, 18, 17, 16, 11, 10,
        13, 12, 15, 14, 30, 29, 28, 23, 22, 25, 24, 27, 26, 39, 38, 37, 32, 31,
        34, 33, 36, 35
      ],
      "name": "Armature.001"
    }
  ],
  "accessors": [
    {
      "bufferView": 0,
      "componentType": 5123,
      "count": 26147,
      "normalized": true,
      "type": "VEC4"
    },
    {
      "bufferView": 1,
      "componentType": 5126,
      "count": 26147,
      "max": [0.26997074484825134, 1.128886103630066, 0.7535320520401001],
      "min": [-0.25539761781692505, 0.8281225562095642, 0.43967205286026],
      "type": "VEC3"
    },
    {
      "bufferView": 2,
      "componentType": 5126,
      "count": 26147,
      "type": "VEC2"
    },
    {
      "bufferView": 3,
      "componentType": 5126,
      "count": 26147,
      "type": "VEC3"
    },
    {
      "bufferView": 4,
      "componentType": 5121,
      "count": 26147,
      "type": "VEC4"
    },
    {
      "bufferView": 5,
      "componentType": 5126,
      "count": 26147,
      "type": "VEC4"
    },
    {
      "bufferView": 6,
      "componentType": 5123,
      "count": 96804,
      "type": "SCALAR"
    },
    {
      "bufferView": 7,
      "componentType": 5123,
      "count": 8510,
      "normalized": true,
      "type": "VEC4"
    },
    {
      "bufferView": 8,
      "componentType": 5126,
      "count": 8510,
      "max": [0.9490936994552612, 1.143359899520874, 0.9497931599617004],
      "min": [-0.9345209002494812, 0.007942459546029568, -0.7537778615951538],
      "type": "VEC3"
    },
    {
      "bufferView": 9,
      "componentType": 5126,
      "count": 8510,
      "type": "VEC2"
    },
    {
      "bufferView": 10,
      "componentType": 5126,
      "count": 8510,
      "type": "VEC3"
    },
    {
      "bufferView": 11,
      "componentType": 5121,
      "count": 8510,
      "type": "VEC4"
    },
    {
      "bufferView": 12,
      "componentType": 5126,
      "count": 8510,
      "type": "VEC4"
    },
    {
      "bufferView": 13,
      "componentType": 5123,
      "count": 27468,
      "type": "SCALAR"
    },
    {
      "bufferView": 14,
      "componentType": 5126,
      "count": 42,
      "type": "MAT4"
    }
  ],
  "bufferViews": [
    {
      "buffer": 0,
      "byteLength": 209176,
      "byteOffset": 0,
      "target": 34962
    },
    {
      "buffer": 0,
      "byteLength": 313764,
      "byteOffset": 209176,
      "target": 34962
    },
    {
      "buffer": 0,
      "byteLength": 209176,
      "byteOffset": 522940,
      "target": 34962
    },
    {
      "buffer": 0,
      "byteLength": 313764,
      "byteOffset": 732116,
      "target": 34962
    },
    {
      "buffer": 0,
      "byteLength": 104588,
      "byteOffset": 1045880,
      "target": 34962
    },
    {
      "buffer": 0,
      "byteLength": 418352,
      "byteOffset": 1150468,
      "target": 34962
    },
    {
      "buffer": 0,
      "byteLength": 193608,
      "byteOffset": 1568820,
      "target": 34963
    },
    {
      "buffer": 0,
      "byteLength": 68080,
      "byteOffset": 1762428,
      "target": 34962
    },
    {
      "buffer": 0,
      "byteLength": 102120,
      "byteOffset": 1830508,
      "target": 34962
    },
    {
      "buffer": 0,
      "byteLength": 68080,
      "byteOffset": 1932628,
      "target": 34962
    },
    {
      "buffer": 0,
      "byteLength": 102120,
      "byteOffset": 2000708,
      "target": 34962
    },
    {
      "buffer": 0,
      "byteLength": 34040,
      "byteOffset": 2102828,
      "target": 34962
    },
    {
      "buffer": 0,
      "byteLength": 136160,
      "byteOffset": 2136868,
      "target": 34962
    },
    {
      "buffer": 0,
      "byteLength": 54936,
      "byteOffset": 2273028,
      "target": 34963
    },
    {
      "buffer": 0,
      "byteLength": 2688,
      "byteOffset": 2327964
    }
  ],
  "buffers": [
    {
      "byteLength": 2330652,
      "uri": "data:application/octet-stream;base64,"
    }
  ]
}
